<?xml version="1.0" encoding="utf-8"?>
<!-- Generator: Adobe Illustrator 21.0.0, SVG Export Plug-In . SVG Version: 6.00 Build 0)  -->
<svg version="1.1" id="图层_1" xmlns="http://www.w3.org/2000/svg" xmlns:xlink="http://www.w3.org/1999/xlink" x="0px" y="0px"
	 viewBox="0 0 267 33.2" style="enable-background:new 0 0 267 33.2;" xml:space="preserve">
<title>资源 1</title>
<g id="图层_2">
	<g id="图层_1-2">
		<path d="M19.6,16.2c-2.2,1.3-4.7,1.9-7.2,1.8H7.2v9.6H0V0.6h11.6c2.6-0.1,5.2,0.5,7.5,1.6C21.4,3.6,23,5.9,23,9.5
			C23.1,12.2,21.8,14.7,19.6,16.2z M14.4,6.2c-1.2-0.7-2.5-1.1-3.9-0.9H7.2v8.2h2.7c2,0,3.9-0.4,4.9-1.6c0.6-0.8,0.8-1.7,0.8-2.6
			C15.7,8.1,15.3,6.9,14.4,6.2z"/>
		<path d="M43.1,6.8C38,6.8,36,9.8,36,14.7v13h-7.3V6.9c0-2.2-0.2-4-0.2-6.3h7l0.2,4.7c1.4-3.4,4.8-5.5,8.5-5.3c0.4,0,0.9,0,1.3,0.1
			V7C44.7,6.9,43.9,6.8,43.1,6.8z"/>
		<path d="M55.9,15.7c0,4.1,1.7,7.9,6.2,7.9c3.2,0,5-1.5,5.4-4.7H75c-1,7-6.8,9.3-13.1,9.3c-8.7,0-13.7-4.9-13.7-13.6
			c0-9,4.7-14.6,14-14.6c5.2,0,9.8,2.2,11.9,7.2c1.1,2.6,1.2,5.3,1.2,8.5H55.9z M62.2,4.6c-3.8,0-6.2,2.8-6.2,6.6h11.8
			C67.8,7.2,65.9,4.6,62.2,4.6z"/>
		<path d="M80.4,33.2v-3.4H98v3.4L80.4,33.2z"/>
		<path d="M126.8,24.3c-2.7,2.4-6.8,3.4-11.8,3.4h-11.2V0.6h11.2c4,0,7.7,0.7,10.4,2.5c3.2,2.1,5.2,5.6,5.2,10.9
			C130.7,18.8,129.3,22.1,126.8,24.3z M121.4,7.7c-1.4-1.5-3.6-2.2-6.8-2.2h-3.5v17.4h3.4c3.2,0,5.5-0.7,6.9-2.3
			c1.2-1.4,1.9-3.3,1.9-6.4S122.8,9.1,121.4,7.7z"/>
		<path d="M142.1,15.7c-0.1,4.1,1.7,7.9,6.2,7.9c3.1,0,5-1.5,5.4-4.7h7.6c-1,7-6.8,9.3-13.1,9.3c-8.7,0-13.7-4.9-13.7-13.6
			c0-9,4.7-14.6,13.9-14.6c5.2,0,9.8,2.1,11.9,7.2c1.1,2.6,1.2,5.3,1.2,8.5L142.1,15.7z M148.4,4.6c-3.9,0-6.1,2.8-6.1,6.6h11.8
			C154.1,7.2,152.2,4.6,148.4,4.6z"/>
		<path d="M176.9,28.3c-6.9,0-11.9-2.7-11.9-9.2h7.2c0,2.9,1.9,4.5,5,4.5s4.8-1.1,4.8-3.4c0-1.5-1-2.3-5.2-3.4l-2.3-0.6
			c-5.2-1.3-8.8-3.2-8.8-8c0-5.6,4.9-8.2,11.3-8.2s11.4,2.5,11.4,8.2h-7.2c0-2.4-1.5-3.8-4.2-3.8s-4.2,1.2-4.2,3.1
			c0,1.6,1.5,2.4,5.2,3.4l2.3,0.6c6.4,1.7,8.9,3.8,8.9,8C189.3,25.8,183.9,28.3,176.9,28.3z"/>
		<path d="M195.1,27.7V0.6h7.2v27.1H195.1z"/>
		<path d="M222.7,28.3c-10.1,0-14.7-5.4-14.7-14S213.5,0,222.8,0c6.3,0,11.1,2.4,11.8,8.6h-7.3c-0.4-2.3-2.5-4-4.9-3.8
			c-5.3,0-7.2,4.3-7.2,9.2c0,5.2,1.5,9.4,7.9,9.4c1.5,0,3.1-0.2,4.6-0.5v-5.7H222v-4.5h12.7v13.8C230.8,27.8,226.8,28.3,222.7,28.3z
			"/>
		<path d="M259.8,27.7V13.3c0-3.8-0.9-7.9-5.8-7.9s-5.7,5.6-5.7,8.6v13.7H241V5.8c0-1.7-0.1-3.3-0.2-5.2h7.2l0.1,4
			c2.4-3.1,5-4.6,9-4.6c6.6,0,10,3.6,10,10.1v17.6H259.8z"/>
	</g>
</g>
</svg>
