<svg id="图层_1" data-name="图层 1" xmlns="http://www.w3.org/2000/svg" viewBox="0 0 231.55 36.15"><title>webdesign</title><path d="M18,36.15c-11.28,0-18-6.53-18-17.91C0,7.39,6.58,0,17.62,0c7.3,0,13.06,3,13.73,10.85H23.71c-.53-3.65-3-5.23-6.53-5.23-7,0-9.31,6.43-9.31,12.43,0,6.77,3.07,12.72,10.56,12.72a21.41,21.41,0,0,0,5.81-.72V21.89H16.9V16.75h14.5V34.23A50.37,50.37,0,0,1,18,36.15Z"/><path d="M63,35.52l-3-8H44.88l-3,8H34.46L48.53.82H57l14.3,34.71ZM52.51,6.19,46.7,22.47H58.08Z"/><path d="M75.07,35.52V.82h7.54V30.05H98.83v5.47Z"/><path d="M103.58,35.52V.82h7.54V30.05h16.23v5.47Z"/><path d="M156.43,35.52l-3-8H138.29l-3,8h-7.44L141.94.82h8.5l14.3,34.71ZM145.92,6.19l-5.81,16.27h11.38Z"/><path d="M188.69,35.52a22.55,22.55,0,0,1-.91-4.42c-.19-1.54-.29-3-.43-4.51-.43-4.27-1.25-5.71-5.76-5.71H176V35.52h-7.49V.82h13.3c2.88,0,5.62,0,8.3,1.15,3.41,1.44,5.57,3.84,5.57,7.63,0,4.94-3.22,7.49-7.83,8.4v0c3.94.24,5.71,1.63,6.53,5.28.24,1,.34,2.21.53,3.46.38,2.93.43,6,1.68,8.74ZM180.77,6.1H176v9.7h4.27c3.6,0,8.06-.29,8.06-4.94C188.3,6.63,184.13,6.1,180.77,6.1Z"/><path d="M218.11,22V35.52h-7.54V22L197.09.77h8.79l8.74,16.08L223.44.77h8.11Z"/></svg>