<svg id="图层_1" data-name="图层 1" xmlns="http://www.w3.org/2000/svg" viewBox="0 0 189.51 36.29"><title>webdesign</title><path d="M43.44,35.57H34.37L26.64,7.2,18.77,35.57H9.7L0,.86H7.92l6.72,28.32L22.32.86h9.12l7.49,28.32L45.51.86H52.9Z"/><path d="M71.71,36.29c-11.14,0-16.51-7.49-16.51-18S60.72,0,71.86,0,88.37,7.68,88.37,18.19,82.75,36.29,71.71,36.29Zm0-30.77c-6.86,0-8.93,6.77-8.93,12.53,0,6,1.78,12.67,8.93,12.67S80.79,24,80.79,18,78.72,5.52,71.71,5.52Z"/><path d="M114.67,35.57a22.48,22.48,0,0,1-.91-4.42c-.19-1.54-.29-3-.43-4.51-.43-4.27-1.25-5.71-5.76-5.71H102V35.57H94.46V.86h13.3c2.88,0,5.62,0,8.3,1.15,3.41,1.44,5.57,3.84,5.57,7.63,0,4.94-3.22,7.49-7.82,8.4v0c3.94.24,5.71,1.63,6.53,5.28.24,1,.34,2.21.53,3.46.38,2.93.43,6,1.68,8.74ZM106.75,6.14H102v9.7h4.27c3.6,0,8.06-.29,8.06-4.94C114.29,6.67,110.11,6.14,106.75,6.14Z"/><path d="M128.5,35.57V.86H136V35.57Zm21.41,0L136.13,16.51,148.61.86h9.12L144.1,16.23l15.22,19.35Z"/><path d="M175.06,36.2c-7.49,0-13.63-3-13.78-11.28h7.54c.1,3.7,2.26,5.9,6.38,5.9,3.07,0,6.53-1.54,6.53-5,0-2.69-2.35-3.55-6.24-4.66l-2.5-.72c-5.47-1.58-10.9-3.7-10.9-9.94,0-7.73,7.2-10.32,13.78-10.32,6.77,0,12.58,2.35,12.63,10H181c-.29-3.17-2.11-5-5.67-5-2.78,0-5.57,1.49-5.57,4.56,0,2.54,2.3,3.31,7.2,4.85l2.88.91c6,1.87,9.7,3.94,9.7,9.7C189.51,33.17,181.87,36.2,175.06,36.2Z"/></svg>