<svg id="图层_1" data-name="图层 1" xmlns="http://www.w3.org/2000/svg" viewBox="0 0 175.35 36.34"><title>webdesign</title><path d="M28.56,35.57l-3-8H10.42l-3,8H0L14.07.86h8.5l14.3,34.71ZM18,6.24,12.24,22.51H23.62Z"/><path d="M54.24,35.57H40.61V.86h12a32.39,32.39,0,0,1,6.82.43c4.22,1,7.39,3.7,7.39,8.35,0,4.46-2.83,6.77-6.91,7.83,4.7.86,8.16,3.26,8.16,8.4C68.12,33.75,60.34,35.57,54.24,35.57ZM53.19,6H47.91v9.26h4.8c3.31,0,6.67-.67,6.67-4.7C59.38,7,56.21,6,53.19,6Zm.67,14.21h-6V30.39h5.52c3.5,0,7-.82,7-5S57.41,20.26,53.86,20.26Z"/><path d="M88.9,36.29c-11.14,0-16.51-7.49-16.51-18S77.9,0,89,0s16.51,7.68,16.51,18.19S99.94,36.29,88.9,36.29Zm0-30.77C82,5.52,80,12.29,80,18c0,6,1.78,12.67,8.93,12.67S98,24,98,18,95.91,5.52,88.9,5.52Z"/><path d="M126.63,36.34c-5.14,0-10.51-1.3-13.25-6-1.73-3-1.87-6-1.87-9.36V.86h7.73V21.31c0,5.33,1.39,9.5,7.58,9.5s7.68-4.42,7.68-9.7V.86H142V21.12C142,31.2,136.75,36.34,126.63,36.34Z"/><path d="M164.5,6.38V35.57H157V6.38H146.11V.86h29.23V6.38Z"/></svg>