<?xml version="1.0" encoding="UTF-8"?>
<svg id="_图层_2" data-name="图层 2" xmlns="http://www.w3.org/2000/svg" viewBox="0 0 362.32 28.45">
  <defs>
    <style>
      .cls-1 {
        fill: #fff;
      }
    </style>
  </defs>
  <g id="_图层_1-2" data-name="图层 1">
    <g>
      <path class="cls-1" d="M169.09,10.08h-7.73c-.11-3.06-1.56-5.37-4.77-5.37-5.2,0-6.06,5.26-6.06,9.44s.8,9.55,5.9,9.55c3.59,0,4.83-2.52,4.94-5.85h7.94v.23c0,7.24-6.6,10.25-12.93,10.25-8.8,0-14-5-14-13.84S147.69,.08,156.6,.08c6.7,0,11.85,2.84,12.49,10Z"/>
      <path class="cls-1" d="M54.11,14.11c0,7.83-4.78,14.11-14.16,14.11s-14.06-6.06-14.06-14.11S30.55,0,40.05,0s14.06,6.22,14.06,14.11Zm-7.3-.05c0-4.45-1.56-9.17-6.87-9.17s-6.76,4.88-6.76,9.17,1.29,9.28,6.76,9.28,6.87-4.83,6.87-9.28Z"/>
      <path class="cls-1" d="M200.08,14.11c0,7.83-4.78,14.11-14.16,14.11s-14.06-6.06-14.06-14.11,4.66-14.11,14.16-14.11,14.06,6.22,14.06,14.11Zm-7.3-.05c0-4.45-1.56-9.17-6.87-9.17s-6.76,4.88-6.76,9.17,1.29,9.28,6.76,9.28,6.87-4.83,6.87-9.28Z"/>
      <path class="cls-1" d="M331.23,22.37c0,1.72,.05,3.49,.21,5.31h-7.24l-.11-4.13c-2.41,3.11-4.94,4.56-8.91,4.56-6.6,0-9.93-3.54-9.93-10V.59h7.3V15c0,3.76,.27,7.89,5.1,7.89,5.15,0,6.28-5.53,6.28-8.58V.59h7.3V22.37Z"/>
      <path class="cls-1" d="M125.2,7.35c1.1,2.6,1.2,5.4,1.2,8.6h-19.4c-.1,4.1,1.6,7.9,6.2,7.9,3.2,0,5-1.6,5.4-4.7h7.6c-1,7-6.8,9.3-13.1,9.3-8.7,0-13.7-4.9-13.7-13.6S104.1,.25,113.3,.25c5.2,0,9.8,2.2,11.9,7.1Zm-6.3,4.1c0-4.1-1.9-6.6-5.6-6.6s-6.1,2.7-6.1,6.6h11.7Z"/>
      <path class="cls-1" d="M361.12,7.35c1.1,2.6,1.2,5.4,1.2,8.6h-19.4c-.1,4.1,1.6,7.9,6.2,7.9,3.2,0,5-1.6,5.4-4.7h7.6c-1,7-6.8,9.3-13.1,9.3-8.7,0-13.7-4.9-13.7-13.6S340.02,.25,349.22,.25c5.2,0,9.8,2.2,11.9,7.1Zm-6.3,4.1c0-4.1-1.9-6.6-5.6-6.6s-6.1,2.7-6.1,6.6h11.7Z"/>
      <path class="cls-1" d="M230.5,10.27V27.82h-7.24V13.49c0-3.81-.27-7.94-5.1-7.94-5.2,0-6.33,5.53-6.33,8.64v13.63h-7.3V6.08c0-1.72-.05-3.49-.21-5.31h7.24l.11,4.13c2.41-3.11,4.94-4.56,9-4.56,6.55-.05,9.83,3.5,9.83,9.93Z"/>
      <path class="cls-1" d="M300.12,10.27V27.82h-7.24V13.49c0-3.81-.27-7.94-5.1-7.94-5.2,0-6.33,5.53-6.33,8.64v13.63h-7.3V6.08c0-1.72-.05-3.49-.21-5.31h7.24l.11,4.13c2.41-3.11,4.94-4.56,9-4.56,6.55-.05,9.83,3.5,9.83,9.93Z"/>
      <path class="cls-1" d="M25.15,5.55h-9V27.82h-7.24V5.55H0V.72H25.11l.04,4.83Z"/>
      <path class="cls-1" d="M257.99,5.55h-9V27.82h-7.24V5.55h-8.91V.72h25.11l.04,4.83Z"/>
      <path class="cls-1" d="M86.8,27.81h-13.91V.71h13.21c4.96,0,10.42,1.69,10.42,7,0,3.18-2.04,5.01-5.01,5.96,3.52,.84,6.01,2.78,6.01,6.45,0,5.71-5.46,7.69-10.72,7.69Zm-2.03-22.68h-4.82v6.65h4.42c3.13,0,4.96-.7,4.96-3.42,0-2.53-1.69-3.23-4.57-3.23Zm.55,10.97h-5.37v7.25h5.02c3.38,0,5.16-.79,5.16-3.67s-1.79-3.57-4.81-3.57Z"/>
      <path class="cls-1" d="M260.92,27.77V.77h7.22V27.77h-7.22Z"/>
    </g>
  </g>
</svg>