<?xml version="1.0" encoding="UTF-8"?>
<svg id="_图层_2" data-name="图层 2" xmlns="http://www.w3.org/2000/svg" viewBox="0 0 690.13 498.89">
  <defs>
    <style>
      .cls-1 {
        fill: #03129f;
      }

      .cls-2 {
        fill: #db1968;
      }

      .cls-3 {
        fill: #fff;
        stroke: #040000;
        stroke-miterlimit: 10;
        stroke-width: 3.69px;
      }
    </style>
  </defs>
  <g id="_图层_1-2" data-name="图层 1">
    <g>
      <path class="cls-1" d="M128.23,220.99l-37.85,7.87c-1.79-5.13-4.55-9.51-8.28-13.15-5.33-4.84-12.36-6.35-21.09-4.54-12.44,2.59-19.67,10.53-21.68,23.84-1.05,7.07-.45,16.05,1.81,26.94,2.16,10.37,5.1,18.46,8.83,24.26,6.85,10.84,16.37,14.99,28.55,12.45,8.64-1.8,14.29-5.4,16.95-10.82s3.61-11.93,2.84-19.52l37.72-7.84c1.47,11.41-.38,22.88-5.56,34.42-8.22,18.56-23.69,30.21-46.42,34.93-22.72,4.72-40.84,1.46-54.36-9.79-13.52-11.25-22.51-27.64-26.98-49.15-5.05-24.28-3.05-44.39,5.98-60.33,9.04-15.94,23.97-26.07,44.79-30.4,17.71-3.68,33.03-2.72,45.96,2.89,12.93,5.61,22.52,18.26,28.78,37.96Z"/>
      <path class="cls-1" d="M248.45,144.91c15.03,12.47,24.67,28.9,28.9,49.29,4.31,20.74,2.04,39.71-6.83,56.92-8.86,17.21-25.43,28.34-49.71,33.39-24.28,5.05-43.91,1.44-58.9-10.81-14.99-12.25-24.63-28.75-28.95-49.49-4.24-20.39-1.95-39.3,6.87-56.73,8.82-17.43,25.36-28.66,49.64-33.71,24.28-5.05,43.94-1.34,58.97,11.13Zm-52.6,20.13c-10.8,2.25-18.32,7.8-22.57,16.66-4.24,8.86-4.89,20.37-1.95,34.54,2.95,14.17,8.13,24.49,15.56,30.97,7.43,6.48,16.55,8.59,27.35,6.35s18.3-7.81,22.49-16.71c4.19-8.89,4.81-20.43,1.87-34.6-2.95-14.17-8.11-24.48-15.49-30.92s-16.47-8.54-27.27-6.3Z"/>
      <path class="cls-1" d="M339.54,126.71c-12.53,2.6-20.02,9.71-22.48,21.3-1.25,6.12-.97,13.54,.84,22.27l15.9,76.47-36.81,7.65-29.31-141.01,35.64-7.41,4.28,20.61c3.24-8.25,6.65-14.41,10.22-18.48,6.42-7.28,15.46-12.14,27.12-14.56,14.6-3.04,27.34-1.69,38.22,4.02s18.16,17.43,21.84,35.14l19.77,95.13-37.85,7.87-17.86-85.93c-1.54-7.43-3.72-12.93-6.54-16.49-5.14-6.5-12.8-8.7-23-6.58Z"/>
      <path class="cls-1" d="M382.29,303.32c7.18-14.47,22.65-24.18,46.41-29.12,15.47-3.21,29.84-3,43.13,.63,13.29,3.64,21.7,13.97,25.24,30.99l13.47,64.8c.93,4.49,2.15,9.92,3.65,16.28,1.27,4.78,2.68,7.92,4.25,9.39s3.68,2.53,6.33,3.15l1.13,5.44-40.18,8.35c-1.72-2.62-3.05-5.13-4-7.55s-1.89-5.2-2.81-8.34c-3.95,6.59-8.85,12.52-14.69,17.79-7,6.23-15.51,10.39-25.53,12.47-12.79,2.66-24.11,1.2-33.97-4.36-9.86-5.57-16.18-15.05-18.96-28.44-3.61-17.37,.47-31.33,12.25-41.89,6.46-5.76,16.64-11.03,30.52-15.81l12.25-4.17c6.65-2.28,11.3-4.38,13.97-6.28,4.8-3.34,6.71-7.39,5.72-12.14-1.2-5.79-4.04-9.37-8.52-10.74-4.48-1.37-10.6-1.24-18.38,.37-8.73,1.81-14.46,5.26-17.19,10.33-1.93,3.74-2.76,8.42-2.49,14.04l-35.64,7.41c-1.79-12.52-.44-23.39,4.04-32.61Zm48.11,93.57c4.05,2.13,8.58,2.68,13.59,1.64,7.95-1.65,14.79-5.51,20.51-11.57,5.73-6.06,7.44-15.29,5.13-27.7l-2.86-13.74c-2.03,1.95-4.14,3.63-6.32,5.03s-5.27,2.92-9.26,4.56l-7.97,3.28c-7.49,3-12.71,5.84-15.67,8.53-5,4.56-6.77,10.38-5.29,17.46,1.31,6.31,4.03,10.48,8.14,12.5Z"/>
      <path class="cls-1" d="M627.65,231.12l-37.85,7.87c-1.79-5.13-4.55-9.51-8.28-13.15-5.33-4.84-12.36-6.35-21.09-4.54-12.44,2.59-19.67,10.53-21.68,23.84-1.05,7.07-.45,16.05,1.81,26.94,2.16,10.37,5.1,18.46,8.83,24.26,6.85,10.84,16.37,14.99,28.55,12.45,8.64-1.8,14.29-5.4,16.95-10.82,2.66-5.42,3.61-11.93,2.84-19.52l37.72-7.84c1.47,11.41-.38,22.88-5.56,34.42-8.22,18.56-23.69,30.21-46.42,34.93-22.72,4.72-40.84,1.46-54.36-9.79-13.52-11.25-22.51-27.64-26.98-49.15-5.05-24.28-3.05-44.39,5.98-60.33,9.04-15.94,23.97-26.07,44.79-30.4,17.71-3.68,33.03-2.72,45.96,2.89,12.93,5.61,22.52,18.26,28.78,37.96Z"/>
      <polygon class="cls-1" points="253.92 288.81 259.11 313.78 259.41 315.25 298.12 307.2 321.94 421.77 325.61 421.01 355.27 414.85 358.75 414.12 334.93 299.55 373.64 291.5 373.33 290.03 368.14 265.06 253.92 288.81"/>
      <polygon class="cls-1" points="570.41 96.13 575.6 121.1 575.9 122.57 614.61 114.52 638.43 229.09 642.1 228.33 671.76 222.17 675.24 221.44 651.42 106.87 690.13 98.82 689.82 97.35 684.63 72.38 570.41 96.13"/>
      <path class="cls-2" d="M220.6,317.45l-34.6,.07c-1.45,0-2.84,.58-3.86,1.61l-77.53,77.52,41.52,41.52,77.52-77.53c1.02-1.03,1.61-2.41,1.61-3.86l.07-34.6c.01-2.6-2.11-4.72-4.71-4.71Zm-5.79,20.09c-2.88,2.88-7.56,2.88-10.45,0-2.88-2.88-2.88-7.56,0-10.45,2.88-2.88,7.56-2.88,10.45,0,2.88,2.88,2.88,7.56,0,10.45Z"/>
    </g>
    <g>
      <rect class="cls-3" x="384.76" y="303.55" width="49.55" height="172.09"/>
      <rect class="cls-3" x="384.76" y="472.82" width="61.65" height="24.23"/>
      <g>
        <rect class="cls-3" x="417.99" y="113.26" width="36.52" height="132.99" transform="translate(862.71 -22.13) rotate(132.27)"/>
        <rect class="cls-3" x="476.14" y="220.52" width="36.52" height="24.19" transform="translate(-10.29 441.97) rotate(-47.73)"/>
      </g>
      <rect class="cls-3" x="314.61" y="89.38" width="41.71" height="34.97" transform="translate(-16.23 90.47) rotate(-15)"/>
      <circle class="cls-3" cx="321.2" cy="53.63" r="48.37"/>
      <rect class="cls-3" x="298.97" y="121.23" width="123.2" height="169.27" transform="translate(-40.99 100.34) rotate(-15)"/>
      <rect class="cls-3" x="292.94" y="284.08" width="49.55" height="172.09" transform="translate(209.67 -105.54) rotate(27.85)"/>
      <rect class="cls-3" x="247.72" y="445.18" width="61.79" height="24.23" transform="translate(245.85 -77.19) rotate(27.85)"/>
      <g>
        <rect class="cls-3" x="253.41" y="34.46" width="34.81" height="66" transform="translate(.09 135.27) rotate(-28.05)"/>
        <rect class="cls-3" x="228.83" y="2.09" width="9.49" height="44.83" transform="translate(15.91 112.72) rotate(-28.05)"/>
      </g>
      <g>
        <polygon class="cls-3" points="239.17 212.13 204.78 200.58 243.15 87.2 277.54 98.75 239.17 212.13"/>
        <rect class="cls-3" x="246.05" y="69.42" width="36.28" height="24.19" transform="translate(488.68 242.9) rotate(-161.44)"/>
      </g>
    </g>
  </g>
</svg>