<?xml version="1.0" encoding="UTF-8"?>
<svg id="_图层_2" data-name="图层 2" xmlns="http://www.w3.org/2000/svg" viewBox="0 0 187.74 28.31">
  <defs>
    <style>
      .cls-1 {
        fill: #0f0f0f;
      }
    </style>
  </defs>
  <g id="_图层_1-2" data-name="图层 1">
    <g>
      <g>
        <path class="cls-1" d="M155.51,10.13V27.68h-7.24V13.35c0-3.81-.27-7.94-5.1-7.94-5.2,0-6.33,5.53-6.33,8.64v13.63h-7.3V5.94c0-1.72-.05-3.49-.21-5.31h7.24l.11,4.13c2.41-3.11,4.94-4.56,9-4.56,6.55-.05,9.83,3.5,9.83,9.93Z"/>
        <path class="cls-1" d="M123.91,7.1c1.1,2.6,1.2,5.4,1.2,8.6h-19.4c-.1,4.1,1.6,7.9,6.2,7.9,3.2,0,5-1.6,5.4-4.7h7.6c-1,7-6.8,9.3-13.1,9.3-8.7,0-13.7-4.9-13.7-13.6S102.81,0,112.01,0c5.2,0,9.8,2.2,11.9,7.1Zm-6.3,4.1c0-4.1-1.9-6.6-5.6-6.6s-6.1,2.7-6.1,6.6h11.7Z"/>
        <path class="cls-1" d="M183.88,24.3c-2.72,2.37-6.82,3.36-11.72,3.36h-11.13V.67h11.18c3.96,0,7.67,.74,10.38,2.52,3.17,2.08,5.14,5.54,5.14,10.88,0,4.75-1.38,8.06-3.86,10.24Zm-5.39-16.62c-1.38-1.53-3.56-2.18-6.78-2.18h-3.46V22.82h3.36c3.21,0,5.44-.69,6.87-2.32,1.24-1.38,1.88-3.31,1.93-6.38,0-2.92-.59-4.99-1.93-6.43Z"/>
      </g>
      <g>
        <path class="cls-1" d="M25.15,5.41h-9V27.68h-7.24V5.41H0V.58H25.11l.04,4.83Z"/>
        <path class="cls-1" d="M84.51,7.21c1.1,2.6,1.2,5.4,1.2,8.6h-19.4c-.1,4.1,1.6,7.9,6.2,7.9,3.2,0,5-1.6,5.4-4.7h7.6c-1,7-6.8,9.3-13.1,9.3-8.7,0-13.7-4.9-13.7-13.6S63.41,.11,72.61,.11c5.2,0,9.8,2.2,11.9,7.1Zm-6.3,4.1c0-4.1-1.9-6.6-5.6-6.6s-6.1,2.7-6.1,6.6h11.7Z"/>
        <path class="cls-1" d="M47.03,27.63v-11.42h-11.23v11.42h-7.22V.63h7.22V11.16h11.23V.63h7.22V27.63h-7.22Z"/>
      </g>
    </g>
  </g>
</svg>