<?xml version="1.0" encoding="UTF-8"?>
<svg id="_图层_2" data-name="图层 2" xmlns="http://www.w3.org/2000/svg" viewBox="0 0 158.07 28.34">
  <defs>
    <style>
      .cls-1 {
        fill: #fff;
      }
    </style>
  </defs>
  <g id="_图层_1-2" data-name="图层 1">
    <g>
      <path class="cls-1" d="M115.3,23.71c-5.1,0-5.9-5.55-5.9-9.55s.86-9.44,6.06-9.44c3.21,0,4.66,2.31,4.77,5.37h7.73C127.32,2.93,122.17,.09,115.47,.09c-8.91,0-14.22,5.57-14.22,14.41s5.2,13.84,14,13.84c6.33,0,12.93-3.01,12.93-10.25v-.23h-7.94c-.11,3.33-1.35,5.85-4.94,5.85Z"/>
      <polygon class="cls-1" points="146.54 12.81 156.84 .72 148.2 .72 138.87 13.01 149.32 27.81 158.07 27.81 146.54 12.81"/>
      <rect class="cls-1" x="131.47" y=".72" width="7.24" height="27.09"/>
      <path class="cls-1" d="M96.81,20.45V.6h-7.24V2.75C87.4,.85,84.57-.13,81.68,.01c-8.83,0-12.37,7.41-12.38,14.23,0,7.51,3.54,14,11.75,14,3.81,0,6.01-1.29,8.42-4.13l.21,3.59h7.31c-.21-2.42-.21-4.88-.18-7.25Zm-13.77,3.01c-5.21,0-6.44-4.99-6.44-9.28s1.4-9.17,6.44-9.17,6.49,4.77,6.49,9.17-1.28,9.28-6.49,9.28Z"/>
      <path class="cls-1" d="M60.41,13.69c2.98-.94,5.01-2.78,5.01-5.96,0-5.31-5.46-7-10.42-7h-13.21V27.83h13.91c5.26,0,10.72-1.99,10.72-7.69,0-3.67-2.48-5.61-6.01-6.45Zm-11.57-8.54h4.82c2.88,0,4.57,.69,4.57,3.23,0,2.73-1.84,3.42-4.96,3.42h-4.43V5.15Zm5.02,18.22h-5.02v-7.25h5.37c3.03,0,4.81,.74,4.81,3.57s-1.79,3.67-5.16,3.67Z"/>
      <polygon class="cls-1" points="16.05 .73 10.01 .73 0 14.26 10.01 27.8 16.05 27.8 7.89 16.76 32.82 16.76 32.82 11.8 7.87 11.8 16.05 .73"/>
    </g>
  </g>
</svg>