<?xml version="1.0" encoding="UTF-8"?>
<svg id="_图层_2" data-name="图层 2" xmlns="http://www.w3.org/2000/svg" viewBox="0 0 113 113">
  <defs>
    <style>
      .cls-1 {
        fill: #fff;
      }
    </style>
  </defs>
  <g id="_图层_1-2" data-name="图层 1">
    <g>
      <path class="cls-1" d="M39.14,87.02c-.48-.48-.87-.65-1.39-.6-.44,.04-1,.39-1.62,1.01l-1.01,1.01,2.67,2.67,.82-.82c.84-.84,1.21-1.55,1.14-2.17-.03-.36-.25-.76-.6-1.11Z"/>
      <path class="cls-1" d="M61.72,88.43c-1.21,1.21-1.19,2.82,.03,4.15l3.93-3.94c-1.39-1.3-2.8-1.38-3.96-.22Z"/>
      <path class="cls-1" d="M54.56,68.55c-1.21,1.21-1.19,2.82,.03,4.15l3.93-3.93c-1.39-1.3-2.79-1.38-3.96-.22Z"/>
      <path class="cls-1" d="M67.41,22.71c1.76-1.76,1.76-4.63,0-6.39-1.76-1.76-4.63-1.76-6.39,0-1.76,1.76-1.76,4.63,0,6.39,1.76,1.76,4.63,1.76,6.39,0Z"/>
      <path class="cls-1" d="M52.92,99.36h0c-.96-.05-1.94,.46-3.08,1.6l-1.1,1.1,5.97,5.97,1.07-1.07c1.15-1.15,1.65-2.15,1.59-3.17-.05-.93-.53-1.82-1.55-2.87-1.03-1.03-1.95-1.53-2.88-1.56Z"/>
      <path class="cls-1" d="M0,0V58.86L47.42,11.45c.63-.63,1.47-.98,2.36-.98l21.16-.04c1.59,0,2.89,1.29,2.88,2.88l-.04,21.16c0,.89-.36,1.74-.98,2.36L25.39,84.26,0,58.86v54.14H53.84l-10.08-10.08,4.2-4.2c1.58-1.58,3.23-2.58,4.78-2.9,2.12-.44,4.14,.28,5.99,2.13,1.69,1.69,2.49,3.46,2.37,5.27h0c-.12,1.79-1.16,3.67-3.09,5.6l-4.18,4.18h59.16V53.84l-2.91,2.91-5.36-5.36c-1.83-1.83-3.35-2.08-4.66-.78-1.73,1.73,.16,4,1.05,4.89l5.11,5.11-2.91,2.91-8.05-8.05c-.68-.68-1.27-1.23-1.94-1.78l-.18-.15,2.9-2.9,1.22,1.16c-.12-1.86,.39-3.2,1.7-4.5,2.45-2.45,5.05-2.43,7.52,.04l6.51,6.51V0H0ZM43.45,88h0c-.24,1.15-.94,2.32-2.01,3.39l-1.69,1.69,3.47,3.47-2.91,2.91-10.08-10.08,4.32-4.32c1.15-1.15,2.29-1.88,3.41-2.19,1.52-.41,2.97,.03,4.22,1.27,1.09,1.09,1.55,2.46,1.28,3.84Zm7.22,1.1l-7.66-7.66c-.39-.39-.75-.71-1.14-1.06-.39-.35-.79-.71-1.21-1.13l-.15-.15,2.81-2.81,1.36,1.24c-.36-1.7,.1-3.13,1.43-4.47,.16-.16,.3-.3,.51-.47l.15-.12,2.81,2.81-.19,.15c-.36,.28-.64,.53-.91,.79-1.66,1.66-1.58,3.29,.26,5.12l4.84,4.84-2.91,2.91Zm2.2-11.93c-3.45-3.45-3.54-7.31-.25-10.6,2.14-2.14,4.67-2.77,7.11-1.76,1.35,.54,2.33,1.46,3.57,2.7l.15,.15-3.4,3.4-3.61,3.61c.88,.85,1.84,1.32,2.71,1.32,.7,0,1.35-.28,1.92-.86,1.06-1.06,1.14-2.15,.25-3.34l3.04-3.04,.02,.02c1.95,2.57,1.46,5.54-1.37,8.37-3.23,3.23-6.92,3.24-10.14,.02Zm17.31,19.87c-3.23,3.23-6.93,3.24-10.15,.02-3.45-3.45-3.54-7.32-.25-10.61,2.15-2.14,4.67-2.77,7.11-1.76,1.35,.54,2.33,1.46,3.58,2.71l.15,.15-3.58,3.58-3.44,3.44c.88,.85,1.84,1.32,2.72,1.32,.7,0,1.35-.28,1.92-.86,1.06-1.06,1.14-2.15,.25-3.34l3.04-3.04,.02,.02c1.95,2.57,1.46,5.54-1.37,8.37Zm10.36-10.33c-2.86,2.86-5.66,3.2-7.89,.97l-.08-.08,2.91-2.91,.08,.08c.94,.94,2.08,.88,3.12-.16,.59-.59,1.45-1.73,.52-2.65-.42-.42-.97-.43-2.84,.66l-1.04,.61c-2.15,1.27-4.41,2.19-6.33,.27-1.95-1.95-1.54-4.7,1.11-7.35,2.7-2.7,5.39-3.11,7.37-1.13h0s-2.9,2.9-2.9,2.9h0c-.8-.8-1.7-.76-2.58,.13-.86,.86-1,1.71-.38,2.33,.47,.47,1.15,.3,2.82-.68l1.04-.61c3.07-1.79,4.8-1.87,6.38-.29,2.1,2.1,1.61,4.99-1.33,7.93Zm6.19-6.62l-10.08-10.08,2.91-2.91,10.08,10.08-2.91,2.91Zm7.54-21.63l.02,.02-2.94,2.94c-1.01-.61-1.93-.49-2.81,.39-2.13,2.13-.45,4.44,.73,5.63,2.24,2.24,4.07,2.4,5.93,.54,.41-.41,.96-1.04,1.35-1.65l-1.79-1.79-2.06,2.06-1.91-1.91,4.87-4.87,5.24,5.24-.07,.14c-.85,1.63-2.22,3.45-3.76,4.99-3.53,3.53-7.32,3.62-10.69,.25-3.26-3.26-3.17-7.4,.23-10.81,2.63-2.63,5.28-3.03,7.66-1.16Z"/>
    </g>
  </g>
</svg>