<?xml version="1.0" encoding="UTF-8"?>
<svg id="_图层_2" data-name="图层 2" xmlns="http://www.w3.org/2000/svg" viewBox="0 0 223.75 28.31">
  <defs>
    <style>
      .cls-1 {
        fill: #fff;
      }
    </style>
  </defs>
  <g id="_图层_1-2" data-name="图层 1">
    <g>
      <path class="cls-1" d="M63.42,8.61h-7.3c-.6-2.6-2.2-3.8-4.5-3.8-5.3,0-7.2,4.3-7.2,9.3s1.5,9.4,7.9,9.4c1.4,0,2.8-.1,4.2-.5v-5.7h-5.3v-4.5h12.3v13.8c-3.8,1.1-7.7,1.7-11.6,1.7-10.2,0-14.9-5.4-14.9-14.1S42.52,0,51.92,0C57.42,0,62.62,2.41,63.42,8.61Z"/>
      <path class="cls-1" d="M95.1,27.71h-7.3l-.2-3.6c-2.4,2.8-4.6,4.1-8.4,4.1-8.2,0-11.8-6.5-11.8-14C67.4,7.41,70.9,0,79.7,0c2.9-.1,5.7,.8,7.9,2.7V.61h7.2V20.51c.1,2.4,.1,4.8,.3,7.2Zm-7.4-13.5c0-4.4-1.5-9.2-6.5-9.2s-6.4,4.9-6.4,9.2,1.2,9.3,6.4,9.3,6.5-4.9,6.5-9.3Z"/>
      <path class="cls-1" d="M108.11,22.31h13.3v4.8h-20.6V.11h7.2V22.31h.1Z"/>
      <path class="cls-1" d="M131.99,22.31h13.3v4.8h-20.5V.11h7.2s0,22.2,0,22.2Z"/>
      <path class="cls-1" d="M172.28,7.12c1.1,2.6,1.2,5.4,1.2,8.6h-19.4c-.1,4.1,1.6,7.9,6.2,7.9,3.2,0,5-1.6,5.4-4.7h7.6c-1,7-6.8,9.3-13.1,9.3-8.7,0-13.7-4.9-13.7-13.6S151.18,.02,160.38,.02c5.2,0,9.8,2.2,11.9,7.1Zm-6.3,4.1c0-4.1-1.9-6.6-5.6-6.6s-6.1,2.7-6.1,6.6h11.7Z"/>
      <path class="cls-1" d="M194.6,.51V7.31c-.8-.1-1.6-.2-2.4-.2-5.1,0-7.1,2.9-7.1,7.8v12.8h-7.2V7.21c0-2.2-.2-4.3-.2-6.6h7l.2,5c1.4-3.3,4.8-5.4,8.4-5.2,.4,.1,.9,.1,1.3,.1Z"/>
      <path class="cls-1" d="M212.45,17.21v10.6h-7.3v-10.6L193.95,.61h8.4l6.8,11.6,6.8-11.6h7.8l-11.3,16.6Z"/>
      <path class="cls-1" d="M14.11,2.28c6.56,0,11.87,5.31,11.87,11.87s-5.31,11.87-11.87,11.87S2.24,20.71,2.24,14.15h0c.01-6.55,5.32-11.86,11.87-11.87M14.11,.04C6.32,.04,0,6.36,0,14.15s6.32,14.11,14.11,14.11,14.11-6.32,14.11-14.11S21.9,.04,14.11,.04h0Z"/>
    </g>
  </g>
</svg>