<?xml version="1.0" encoding="UTF-8"?>
<svg id="_图层_2" data-name="图层 2" xmlns="http://www.w3.org/2000/svg" viewBox="0 0 266.17 28.46">
  <defs>
    <style>
      .cls-1 {
        fill: #fff;
      }
    </style>
  </defs>
  <g id="_图层_1-2" data-name="图层 1">
    <g>
      <path class="cls-1" d="M65.24,14.12c0,7.83-4.78,14.11-14.16,14.11s-14.06-6.06-14.06-14.11S41.68,.01,51.18,.01s14.06,6.22,14.06,14.11Zm-7.3-.05c0-4.45-1.56-9.17-6.87-9.17s-6.76,4.88-6.76,9.17,1.29,9.28,6.76,9.28,6.87-4.83,6.87-9.28Z"/>
      <path class="cls-1" d="M95.06,22.38c0,1.72,.05,3.49,.21,5.31h-7.24l-.11-4.13c-2.41,3.11-4.94,4.56-8.91,4.56-6.6,0-9.93-3.54-9.93-10V.6h7.3V15.01c0,3.76,.27,7.89,5.1,7.89,5.15,0,6.28-5.53,6.28-8.58V.6h7.3V22.38Z"/>
      <path class="cls-1" d="M156.46,5.43h-9V27.69h-7.24V5.43h-8.91V.6h25.11l.04,4.83Z"/>
      <path class="cls-1" d="M14.11,2.25c6.56,0,11.87,5.31,11.87,11.87s-5.31,11.87-11.87,11.87S2.24,20.68,2.24,14.12h0c.01-6.55,5.32-11.86,11.87-11.87M14.11,.01C6.32,.01,0,6.33,0,14.12s6.32,14.11,14.11,14.11,14.11-6.32,14.11-14.11S21.9,.01,14.11,.01h0Z"/>
      <path class="cls-1" d="M117.25,.51V7.33c-.78-.1-1.57-.16-2.36-.16-5.1,0-7.08,2.9-7.08,7.78v12.76h-7.25V7.22c0-2.15-.21-4.35-.21-6.6h7l.21,5c1.43-3.32,4.79-5.38,8.4-5.16,.43,0,.86,0,1.29,.05Z"/>
      <path class="cls-1" d="M183.32,7.36c1.1,2.6,1.2,5.4,1.2,8.6h-19.4c-.1,4.1,1.6,7.9,6.2,7.9,3.2,0,5-1.6,5.4-4.7h7.6c-1,7-6.8,9.3-13.1,9.3-8.7,0-13.7-4.9-13.7-13.6S162.22,.26,171.42,.26c5.2,0,9.8,2.2,11.9,7.1Zm-6.3,4.1c0-4.1-1.9-6.6-5.6-6.6s-6.1,2.7-6.1,6.6h11.7Z"/>
      <path class="cls-1" d="M215.86,27.7h-7.31l-.21-3.59c-2.41,2.84-4.61,4.13-8.42,4.13-8.21,0-11.75-6.49-11.75-14,.01-6.82,3.55-14.23,12.38-14.23,2.89-.15,5.72,.84,7.89,2.74V.6h7.24V20.45c-.03,2.37-.03,4.83,.18,7.25Zm-7.46-13.52c0-4.4-1.45-9.17-6.49-9.17s-6.44,4.88-6.44,9.17,1.23,9.28,6.44,9.28,6.49-4.88,6.49-9.28h0Z"/>
      <path class="cls-1" d="M258.32,27.69V12.59c0-3.71-.54-7.15-5.11-7.15s-5.48,3.6-5.48,7.42v14.83h-7.85V12.64c0-3.55-.64-7.2-5-7.2s-5.59,3.55-5.59,7.26v14.99h-7.85V9.63c0-3.01-.11-5.97-.21-9.03h7.69l.21,4.25c2.1-3.33,5.21-4.68,9.08-4.68s7.04,1.45,8.54,5.21c2.1-3.65,5.59-5.21,9.67-5.21,6.93,0,9.73,4.3,9.73,10.7V27.69h-7.85Z"/>
    </g>
  </g>
</svg>