<?xml version="1.0" encoding="UTF-8"?>
<svg id="_图层_2" data-name="图层 2" xmlns="http://www.w3.org/2000/svg" viewBox="0 0 112 112">
  <defs>
    <style>
      .cls-1 {
        fill: #03129f;
      }
    </style>
  </defs>
  <g id="_图层_1-2" data-name="图层 1">
    <g>
      <path class="cls-1" d="M38.79,86.25c-.47-.47-.86-.64-1.38-.6-.44,.04-1,.39-1.61,1.01l-1,1,2.65,2.65,.81-.81c.83-.83,1.2-1.53,1.13-2.15-.03-.35-.25-.75-.6-1.1Z"/>
      <path class="cls-1" d="M61.18,87.65c-1.2,1.2-1.18,2.8,.03,4.12l3.9-3.9c-1.38-1.29-2.77-1.37-3.93-.22Z"/>
      <path class="cls-1" d="M54.08,67.94c-1.2,1.2-1.18,2.79,.03,4.11l3.9-3.9c-1.38-1.29-2.77-1.37-3.92-.22Z"/>
      <path class="cls-1" d="M66.81,22.51c1.75-1.75,1.75-4.59,0-6.33-1.75-1.75-4.58-1.75-6.33,0-1.75,1.75-1.75,4.58,0,6.33,1.75,1.75,4.58,1.75,6.33,0Z"/>
      <path class="cls-1" d="M52.45,98.48h0c-.95-.05-1.92,.46-3.05,1.59l-1.09,1.09,5.91,5.91,1.06-1.06c1.14-1.14,1.64-2.13,1.57-3.14-.05-.92-.53-1.8-1.54-2.85-1.02-1.02-1.93-1.52-2.86-1.55Z"/>
      <path class="cls-1" d="M0,0V58.34L47,11.35c.62-.62,1.46-.97,2.34-.97l20.98-.04c1.58,0,2.86,1.28,2.86,2.86l-.04,20.98c0,.88-.35,1.72-.97,2.34L25.17,83.51,0,58.34v53.66H53.36l-9.99-9.99,4.16-4.16c1.56-1.56,3.2-2.56,4.74-2.88,2.1-.44,4.1,.28,5.94,2.12,1.67,1.67,2.46,3.43,2.35,5.22h0c-.12,1.77-1.15,3.64-3.06,5.55l-4.14,4.14h58.64V53.36l-2.89,2.89-5.31-5.31c-1.81-1.81-3.32-2.07-4.62-.77-1.72,1.72,.16,3.96,1.04,4.85l5.06,5.06-2.88,2.88-7.98-7.98c-.67-.67-1.26-1.22-1.92-1.77l-.18-.15,2.87-2.87,1.21,1.15c-.12-1.84,.38-3.17,1.68-4.46,2.43-2.43,5-2.41,7.45,.04l6.45,6.45V0H0ZM43.07,87.22h0c-.24,1.14-.93,2.29-1.99,3.36l-1.68,1.68,3.44,3.44-2.89,2.89-9.99-9.99,4.28-4.28c1.14-1.14,2.27-1.87,3.38-2.17,1.5-.41,2.95,.03,4.18,1.26,1.08,1.08,1.53,2.44,1.26,3.81Zm7.16,1.09l-7.59-7.59c-.38-.38-.74-.71-1.13-1.05-.38-.34-.78-.7-1.2-1.12l-.15-.15,2.78-2.78,1.35,1.23c-.36-1.69,.1-3.11,1.42-4.43,.16-.16,.3-.3,.51-.47l.15-.12,2.78,2.78-.19,.15c-.35,.27-.64,.52-.9,.78-1.64,1.64-1.56,3.26,.25,5.08l4.8,4.8-2.89,2.89Zm2.18-11.82c-3.42-3.42-3.51-7.25-.25-10.51,2.12-2.12,4.63-2.74,7.04-1.74,1.34,.53,2.31,1.45,3.54,2.68l.15,.15-3.37,3.37-3.58,3.58c.87,.84,1.82,1.3,2.69,1.31,.7,0,1.34-.28,1.9-.85,1.05-1.05,1.13-2.13,.24-3.31l3.01-3.01,.02,.02c1.93,2.54,1.45,5.49-1.36,8.29-3.2,3.2-6.86,3.21-10.05,.02Zm17.16,19.69c-3.2,3.2-6.87,3.21-10.06,.02-3.42-3.42-3.51-7.25-.25-10.52,2.13-2.13,4.63-2.75,7.05-1.75,1.34,.53,2.31,1.45,3.55,2.68l.15,.15-3.54,3.54-3.41,3.41c.87,.84,1.82,1.31,2.69,1.31,.7,0,1.34-.28,1.91-.85,1.05-1.05,1.13-2.13,.25-3.31l3.01-3.01,.02,.02c1.93,2.55,1.45,5.49-1.36,8.3Zm10.27-10.23c-2.83,2.83-5.61,3.17-7.82,.96l-.08-.08,2.89-2.89,.08,.08c.93,.93,2.06,.87,3.09-.16,.59-.59,1.44-1.71,.52-2.63-.41-.41-.96-.42-2.82,.65l-1.03,.6c-2.13,1.26-4.37,2.17-6.27,.27-1.94-1.94-1.53-4.66,1.1-7.29,2.68-2.68,5.34-3.09,7.31-1.12h0s-2.87,2.87-2.87,2.87h0c-.8-.8-1.68-.75-2.56,.12-.85,.85-.99,1.7-.37,2.31,.46,.46,1.14,.3,2.8-.67l1.03-.6c3.04-1.78,4.75-1.86,6.32-.29,2.08,2.08,1.6,4.94-1.31,7.86Zm6.13-6.56l-9.99-9.99,2.89-2.89,9.99,9.99-2.89,2.89Zm7.48-21.44l.02,.02-2.91,2.91c-1-.61-1.92-.48-2.79,.38-2.11,2.11-.45,4.4,.73,5.58,2.22,2.22,4.03,2.38,5.88,.53,.41-.41,.96-1.03,1.34-1.63l-1.78-1.78-2.04,2.04-1.89-1.89,4.82-4.82,5.19,5.19-.07,.14c-.84,1.62-2.2,3.42-3.73,4.95-3.5,3.49-7.26,3.58-10.59,.25-3.23-3.23-3.15-7.34,.23-10.71,2.61-2.61,5.23-3.01,7.59-1.15Z"/>
    </g>
  </g>
</svg>