<?xml version="1.0" encoding="UTF-8"?>
<svg id="_图层_2" data-name="图层 2" xmlns="http://www.w3.org/2000/svg" viewBox="0 0 188.35 28.24">
  <defs>
    <style>
      .cls-1 {
        fill: #fff;
      }
    </style>
  </defs>
  <g id="_图层_1-2" data-name="图层 1">
    <g>
      <path class="cls-1" d="M74.19,27.7h-8.48l-6.44-20.54-6.87,20.54h-8.4L34.43,.56h8.57l5.58,20.66L55.19,.56h8.91l6.22,20.66L76.12,.56h7.35l-9.28,27.14Z"/>
      <path class="cls-1" d="M112.79,14.13c0,7.83-4.77,14.11-14.16,14.11s-14.06-6.06-14.06-14.11S89.24,.02,98.73,.02s14.06,6.22,14.06,14.11Zm-7.3-.05c0-4.45-1.56-9.17-6.87-9.17s-6.75,4.87-6.75,9.17,1.29,9.28,6.76,9.28,6.86-4.83,6.86-9.28Z"/>
      <path class="cls-1" d="M133.67,.5V7.32c-.78-.1-1.57-.16-2.36-.16-5.1,0-7.08,2.9-7.08,7.78v12.76h-7.25V7.21c0-2.15-.21-4.35-.21-6.6h7l.21,5c1.43-3.32,4.79-5.38,8.4-5.16,.43,0,.86,0,1.29,.05Z"/>
      <path class="cls-1" d="M143.61,27.7h-7.24V.61h7.24V27.7Zm7.83-15l11.53,15h-8.75l-10.45-14.8L153.1,.61h8.64l-10.3,12.09Z"/>
      <path class="cls-1" d="M187.56,8.71h-7.67c-.11-2.58-1.45-4.35-4.08-4.35-1.88,0-4.08,.86-4.08,3s1.93,2.9,5.2,3.59l3,.7c4.18,1,8.42,2.63,8.42,7.73,0,7-6.92,8.85-12.66,8.85-6.33,0-12.07-1.88-12.07-9.23h7.83c.11,3.06,1.39,4.77,4.61,4.77,2.15,0,4.4-1.23,4.4-3.59,0-2-1.88-3-5.1-3.76l-3-.7c-4-1-8-2.58-8-7.56,0-6.44,6.38-8.16,11.54-8.16,5.92,.02,11.31,2.02,11.66,8.71Z"/>
      <path class="cls-1" d="M14.11,2.26c6.56,0,11.87,5.31,11.87,11.87s-5.31,11.87-11.87,11.87S2.24,20.69,2.24,14.13h0c.01-6.55,5.32-11.86,11.87-11.87M14.11,.02C6.32,.02,0,6.34,0,14.13s6.32,14.11,14.11,14.11,14.11-6.32,14.11-14.11S21.9,.02,14.11,.02h0Z"/>
    </g>
  </g>
</svg>