<?xml version="1.0" encoding="UTF-8"?>
<svg id="_图层_2" data-name="图层 2" xmlns="http://www.w3.org/2000/svg" viewBox="0 0 713.97 527.63">
  <defs>
    <style>
      .cls-1 {
        fill: #fff;
        stroke: #040000;
        stroke-miterlimit: 10;
        stroke-width: 3.69px;
      }
    </style>
  </defs>
  <g id="_图层_1-2" data-name="图层 1">
    <g>
      <g>
        <rect class="cls-1" x="200.68" y="299.62" width="49.55" height="172.09" transform="translate(63.02 -30.49) rotate(8.99)"/>
        <rect class="cls-1" x="185.71" y="468.66" width="61.65" height="24.23" transform="translate(77.76 -27.92) rotate(8.99)"/>
        <g>
          <rect class="cls-1" x="287.42" y="46.86" width="36.52" height="132.99" transform="translate(218.31 -200.75) rotate(54.11)"/>
          <rect class="cls-1" x="351.09" y="55.19" width="36.52" height="24.19" transform="translate(531.37 405.95) rotate(-125.89)"/>
        </g>
        <rect class="cls-1" x="176.02" y="87.54" width="41.71" height="34.97" transform="translate(-9.92 21.2) rotate(-6.01)"/>
        <circle class="cls-1" cx="191.1" cy="50.22" r="48.37"/>
        <rect class="cls-1" x="144.6" y="122.1" width="123.2" height="169.27" transform="translate(-20.52 22.74) rotate(-6.01)"/>
        <g>
          <rect class="cls-1" x="66.35" y="47.09" width="36.28" height="132.99" transform="translate(-56.95 107.79) rotate(-51.01)"/>
          <rect class="cls-1" x="5.26" y="52.04" width="36.28" height="24.19" transform="translate(87.98 86.3) rotate(128.99)"/>
        </g>
        <rect class="cls-1" x="113.02" y="266.04" width="49.55" height="172.09" transform="translate(238.58 -12.33) rotate(36.83)"/>
        <rect class="cls-1" x="54.66" y="419.96" width="61.79" height="24.23" transform="translate(276.1 34.95) rotate(36.83)"/>
      </g>
      <g>
        <rect class="cls-1" x="390.76" y="327.22" width="49.55" height="172.09" transform="translate(632.5 957.68) rotate(-156.57)"/>
        <rect class="cls-1" x="341.26" y="486.23" width="61.65" height="24.23" transform="translate(515.36 1103.53) rotate(-156.57)"/>
        <g>
          <rect class="cls-1" x="396.65" y="56.26" width="36.52" height="132.99" transform="translate(820.71 -27.4) rotate(143.21)"/>
          <rect class="cls-1" x="349.59" y="47.72" width="36.52" height="24.19" transform="translate(37.43 232.19) rotate(-36.79)"/>
        </g>
        <rect class="cls-1" x="493.56" y="144.8" width="41.71" height="34.97" transform="translate(979.31 435.84) rotate(-167.03)"/>
        <circle class="cls-1" cx="526.78" cy="108.57" r="48.37"/>
        <rect class="cls-1" x="431.25" y="177.47" width="123.2" height="169.27" transform="translate(914.32 628.1) rotate(-167.03)"/>
        <g>
          <rect class="cls-1" x="606.8" y="117.88" width="36.28" height="132.99" transform="translate(800.12 811.95) rotate(-122.03)"/>
          <rect class="cls-1" x="673.42" y="130.6" width="36.28" height="24.19" transform="translate(445.7 -519.25) rotate(57.97)"/>
        </g>
        <rect class="cls-1" x="520.09" y="328.31" width="49.55" height="172.09" transform="translate(1226.56 476.61) rotate(147.97)"/>
        <rect class="cls-1" x="559.34" y="486.32" width="61.79" height="24.23" transform="translate(1354.97 607.89) rotate(147.97)"/>
      </g>
    </g>
  </g>
</svg>