<?xml version="1.0" encoding="UTF-8"?>
<svg id="_图层_2" data-name="图层 2" xmlns="http://www.w3.org/2000/svg" viewBox="0 0 239.17 28.28">
  <defs>
    <style>
      .cls-1 {
        fill: #0f0f0f;
      }
    </style>
  </defs>
  <g id="_图层_1-2" data-name="图层 1">
    <g>
      <path class="cls-1" d="M63.73,10h-7.73c-.11-3.06-1.56-5.37-4.77-5.37-5.2,0-6.06,5.26-6.06,9.44s.8,9.55,5.9,9.55c3.59,0,4.83-2.52,4.94-5.85h7.94v.23c0,7.24-6.6,10.25-12.93,10.25-8.8,0-14-5-14-13.84S42.32,0,51.28,0C57.94,0,63.09,2.84,63.73,10Z"/>
      <path class="cls-1" d="M94.76,14.16c0,7.84-4.78,14.11-14.15,14.11s-14.07-6.06-14.07-14.11S71.21,.05,80.7,.05s14.06,6.23,14.06,14.11Zm-7.3-.05c0-4.45-1.56-9.17-6.87-9.17s-6.76,4.88-6.76,9.17,1.29,9.28,6.76,9.28,6.87-4.83,6.87-9.28Z"/>
      <path class="cls-1" d="M125.15,10.19V27.74h-7.24V13.41c0-3.81-.27-7.94-5.1-7.94-5.2,0-6.33,5.53-6.33,8.64v13.63h-7.3V6c0-1.72-.05-3.49-.21-5.31h7.24l.11,4.13c2.41-3.11,4.94-4.56,9-4.56,6.55-.05,9.83,3.5,9.83,9.93Z"/>
      <path class="cls-1" d="M152.67,5.47h-9V27.74h-7.17V5.47h-8.91V.64h25.11l-.03,4.83Z"/>
      <path class="cls-1" d="M181.7,27.74h-7.31l-.21-3.59c-2.41,2.84-4.61,4.13-8.42,4.13-8.21,0-11.75-6.49-11.75-14,.01-6.82,3.55-14.23,12.38-14.23,2.89-.15,5.72,.84,7.89,2.74V.64h7.24V20.49c-.03,2.37-.03,4.83,.18,7.25Zm-7.46-13.52c0-4.4-1.45-9.17-6.49-9.17s-6.44,4.88-6.44,9.17,1.23,9.28,6.44,9.28,6.49-4.88,6.49-9.28h0Z"/>
      <path class="cls-1" d="M212.66,10h-7.73c-.11-3.06-1.56-5.37-4.77-5.37-5.2,0-6.06,5.26-6.06,9.44s.8,9.55,5.9,9.55c3.59,0,4.83-2.52,4.94-5.85h7.94v.23c0,7.24-6.6,10.25-12.93,10.25-8.8,0-14-5-14-13.84S191.26,0,200.17,0C206.87,0,212.02,2.84,212.66,10Z"/>
      <path class="cls-1" d="M239.17,5.47h-9V27.74h-7.24V5.47h-8.91V.64h25.11l.04,4.83Z"/>
      <path class="cls-1" d="M14.11,2.24c6.56,0,11.87,5.31,11.87,11.87s-5.31,11.87-11.87,11.87S2.24,20.67,2.24,14.11h0c.01-6.55,5.32-11.86,11.87-11.87M14.11,0C6.32,0,0,6.32,0,14.11s6.32,14.11,14.11,14.11,14.11-6.32,14.11-14.11S21.9,0,14.11,0h0Z"/>
    </g>
  </g>
</svg>