<?xml version="1.0" encoding="UTF-8"?>
<svg id="_图层_2" data-name="图层 2" xmlns="http://www.w3.org/2000/svg" viewBox="0 0 257.14 38.98">
  <defs>
    <style>
      .cls-1 {
        fill: #fff;
      }
    </style>
  </defs>
  <g id="_图层_1-2" data-name="图层 1">
    <g>
      <path class="cls-1" d="M36.36,11.85h-10.05c-.83-3.58-3.03-5.23-6.2-5.23-7.3,0-9.92,5.92-9.92,12.81s2.07,12.94,10.88,12.94c1.93,0,3.86-.14,5.78-.69v-7.85h-7.3v-6.2h16.94v19c-5.23,1.51-10.6,2.34-15.97,2.34C6.47,38.98,0,31.55,0,19.57S7.57,.01,20.52,.01C28.09,.01,35.25,3.32,36.36,11.85Z"/>
      <path class="cls-1" d="M79.98,38.16h-10.05l-.28-4.96c-3.31,3.86-6.33,5.65-11.57,5.65-11.29,0-16.25-8.95-16.25-19.28C41.83,10.2,46.65,.01,58.77,.01c3.99-.14,7.85,1.1,10.88,3.72V.84h9.92V28.24c.14,3.31,.14,6.61,.41,9.92Zm-10.19-18.59c0-6.06-2.07-12.67-8.95-12.67s-8.81,6.75-8.81,12.67,1.65,12.81,8.81,12.81,8.95-6.75,8.95-12.81Z"/>
      <path class="cls-1" d="M97.89,30.72h18.32v6.61h-28.37V.15h9.92V30.72h.14Z"/>
      <path class="cls-1" d="M130.78,30.72h18.32v6.61h-28.23V.15h9.92s0,30.57,0,30.57Z"/>
      <path class="cls-1" d="M186.27,9.81c1.51,3.58,1.65,7.44,1.65,11.84h-26.72c-.14,5.65,2.2,10.88,8.54,10.88,4.41,0,6.89-2.2,7.44-6.47h10.47c-1.38,9.64-9.36,12.81-18.04,12.81-11.98,0-18.87-6.75-18.87-18.73S157.21,.03,169.88,.03c7.16,0,13.5,3.03,16.39,9.78Zm-8.68,5.65c0-5.65-2.62-9.09-7.71-9.09s-8.4,3.72-8.4,9.09h16.11Z"/>
      <path class="cls-1" d="M217,.7V10.06c-1.1-.14-2.2-.28-3.31-.28-7.02,0-9.78,3.99-9.78,10.74v17.63h-9.92V9.93c0-3.03-.28-5.92-.28-9.09h9.64l.28,6.89c1.93-4.54,6.61-7.44,11.57-7.16,.55,.14,1.24,.14,1.79,.14Z"/>
      <path class="cls-1" d="M241.58,23.7v14.6h-10.05v-14.6L216.11,.84h11.57l9.36,15.97L246.4,.84h10.74l-15.56,22.86Z"/>
    </g>
  </g>
</svg>