<?xml version="1.0" encoding="UTF-8"?>
<svg id="_图层_2" data-name="图层 2" xmlns="http://www.w3.org/2000/svg" viewBox="0 0 661.45 288.92">
  <defs>
    <style>
      .cls-1 {
        fill: #03129f;
      }

      .cls-2 {
        fill: #db1968;
      }
    </style>
  </defs>
  <g id="_图层_1-2" data-name="图层 1">
    <g>
      <g>
        <path class="cls-1" d="M196.79,207.6c-1.72-9.29-1.13-17.29,1.75-23.99,2.89-6.7,8.49-11.4,16.81-14.1,7.65-2.49,14.85-2.11,21.62,1.13,6.77,3.24,11.99,9.51,15.66,18.81l-55.85,18.15Zm71.2-58.4c-8.97-7.31-18.73-11.61-29.29-12.92-10.55-1.31-21.55-.11-32.98,3.61-19.25,6.25-32.84,17.69-40.77,34.29-7.94,16.61-8.04,36.81-.31,60.59,8.25,25.38,20.88,41.53,37.9,48.45,17.02,6.92,34.27,7.54,51.76,1.86,21.18-6.88,35.48-18.91,42.9-36.1,4.83-10.86,6.39-20.52,4.66-28.97l-36.69,11.92c-.62,4.66-1.82,8.54-3.61,11.63-3.26,5.7-8.58,9.76-15.98,12.16-6.98,2.27-13.5,2.48-19.58,.65-9.96-2.9-17.42-11.16-22.41-24.78l94.05-30.56c-3.68-11.9-7.01-20.86-9.98-26.86-5.09-10.24-11.65-18.56-19.68-24.97"/>
        <path class="cls-1" d="M543.75,101.53c-3.18,9.25-9.98,15.56-20.42,18.95-10.43,3.39-19.67,2.29-27.72-3.31-8.05-5.6-14.3-15.24-18.74-28.93-4.45-13.69-5.05-25.14-1.82-34.36,3.23-9.22,10.07-15.52,20.5-18.91,10.43-3.39,19.65-2.3,27.64,3.27,7.99,5.57,14.21,15.2,18.66,28.89,4.45,13.69,5.08,25.16,1.9,34.4m1.62-92.16c-16.21-10.7-36.04-12.23-59.5-4.61-23.45,7.62-38.59,20.52-45.42,38.7-6.83,18.18-7.04,37.12-.64,56.82,6.51,20.03,17.83,35.29,33.98,45.78,16.14,10.49,35.94,11.92,59.4,4.3,23.45-7.62,38.63-20.42,45.52-38.39,6.9-17.97,7.09-36.98,.58-57.01-6.4-19.7-17.71-34.9-33.92-45.59"/>
        <polygon class="cls-1" points="81 120.93 97.6 172.01 50.51 187.32 33.97 136.41 33.72 136.49 5.6 145.63 0 147.45 44.15 283.34 49.75 281.52 77.87 272.39 78.12 272.3 58.71 212.56 105.81 197.26 125.16 256.82 130.92 254.95 130.98 255.13 159.19 245.97 159.13 245.78 115.03 110.07 114.97 109.89 81 120.93"/>
        <polygon class="cls-1" points="316.21 110.89 310.64 112.7 282.25 121.93 326.4 257.82 348.46 250.65 360.37 246.78 422.09 226.73 414.16 202.29 413.89 201.48 352.16 221.53 316.21 110.89"/>
        <polygon class="cls-1" points="438.66 137.41 433.09 139.23 404.69 148.45 448.85 284.34 471.13 277.1 482.82 273.31 544.54 253.25 544.76 253.18 536.55 227.93 474.61 248.06 438.66 137.41"/>
      </g>
      <path class="cls-2" d="M540.74,163.67l.07,34.6c0,1.45,.58,2.84,1.61,3.86l77.52,77.53,41.52-41.52-77.53-77.52c-1.03-1.02-2.41-1.61-3.86-1.61l-34.6-.07c-2.6-.01-4.72,2.11-4.71,4.71Zm20.09,5.79c2.88,2.88,2.88,7.56,0,10.45-2.88,2.88-7.56,2.88-10.45,0s-2.88-7.56,0-10.45,7.56-2.88,10.45,0Z"/>
    </g>
  </g>
</svg>